FILE "Rise of the Dragon (USA).bin" BINARY
  TRACK 01 MODE1/2352
    INDEX 01 00:00:00
  TRACK 02 AUDIO
    PREGAP 00:02:00
    INDEX 01 12:11:34
  TRACK 03 AUDIO
    INDEX 00 13:39:29
    INDEX 01 13:41:29
  TRACK 04 AUDIO
    INDEX 00 17:17:02
    INDEX 01 17:19:02
  TRACK 05 AUDIO
    INDEX 00 19:19:08
    INDEX 01 19:21:08
